<?xml version="1.0" encoding="utf-8"?>
<!-- Generator: Adobe Illustrator 18.0.0, SVG Export Plug-In . SVG Version: 6.00 Build 0)  -->
<!DOCTYPE svg PUBLIC "-//W3C//DTD SVG 1.1//EN" "http://www.w3.org/Graphics/SVG/1.1/DTD/svg11.dtd">
<svg version="1.1" id="Calque_1" xmlns="http://www.w3.org/2000/svg" xmlns:xlink="http://www.w3.org/1999/xlink" x="0px" y="0px"
	 viewBox="0 0 1838.6 428" enable-background="new 0 0 1838.6 428" xml:space="preserve">
<g>
	<path fill="#FCFCFC" d="M214,423.9l0,4.1h-0.6c-11.2,0-22-4.5-29.9-12.4c-7.9-7.9-12.5-18.6-12.5-29.8v-13.7
		c-13-3.7-27-9.2-39.4-16.4l-9.6,9.7c-7.9,7.9-18.3,12.2-29.5,12.2c-11.2,0-21.7-4.3-29.6-12.2l-0.4-0.4
		c-16.3-16.3-16.3-42.9,0-59.2l9.7-9.7c-7.2-12.4-12.7-25.8-16.4-39.7l-13.7,0c-11.2,0-21.8-4.4-29.7-12.3
		C4.4,236.1,0,225.6,0,214.4v-0.6c0-11.2,4.4-21.7,12.4-29.6C20.3,176.3,30.8,172,42,172l23.5,0c6.8,0,12.3,5.7,12.3,12.5
		c0,6.8-5.5,12.5-12.3,12.5H42c-4.6,0-9.3,1.6-12.6,4.8c-3.3,3.3-5.4,7.4-5.4,12v0.6c0,4.6,2.2,9,5.4,12.2c3.3,3.3,7.8,5.1,12.4,5.1
		l23.6,0c5.8,0,10.9,4.1,12.1,9.9C81.1,259.4,88,276,98,291c3.2,4.9,2.6,11.4-1.5,15.5l-16.6,16.6c-6.7,6.7-6.7,17.7,0,24.5l0.4,0.4
		c3.3,3.3,7.6,5.1,12.2,5.1c4.6,0,9-1.8,12.2-5.1l16.6-16.6c2.3-2.3,5.4-3.6,8.7-3.6c2.4,0,4.8,0.7,6.8,2.1
		c15,10,31.6,16.9,49.3,20.4c5.7,1.1,9.8,6.2,9.8,12v23.5c0,4.6,1.9,8.9,5.1,12.2c3.3,3.3,7.7,5,12.3,5h0.6c4.6,0,8.8-1.7,12.1-5
		c3.3-3.3,4.9-7.6,4.9-12.2v-23.5c0-5.8,4.3-10.9,10-12c17.8-3.6,34.5-10.4,49.5-20.4c2-1.3,4.4-2.1,6.8-2.1c3.3,0,6.4,1.3,8.7,3.6
		l16.6,16.6c3.3,3.3,7.6,5.1,12.2,5.1c4.6,0,9-1.8,12.2-5.1l0.4-0.4c6.7-6.7,6.7-17.7,0-24.5L331,306.5c-4.1-4.1-4.8-10.6-1.5-15.5
		c10-15,16.9-31.6,20.4-49.4c1.1-5.7,6.2-9.9,12-9.9l23.5,0c4.6,0,9.1-1.8,12.4-5.1c3.3-3.3,5.2-7.6,5.2-12.2v-0.6
		c0-4.6-2-9-5.2-12.2c-3.3-3.3-7.7-5.1-12.3-5.1l-23.5,0c-3.3,0-6.4-1.3-8.7-3.6c-2.3-2.3-3.6-5.4-3.6-8.7c0-3.3,1.3-6.4,3.6-8.7
		c2.3-2.3,5.4-3.6,8.7-3.6l23.5,0c11.2,0,22.1,4.4,30,12.3c7.9,7.9,12.6,18.4,12.6,29.6v0.6c0,11.2-4.7,21.5-12.6,29.5
		c-7.9,7.9-18.8,12.1-30,12.1h-13.7c-3.7,14-9.2,27.4-16.4,39.9l9.7,9.8c7.9,7.9,12.2,18.4,12.2,29.6c0,11.2-4.3,21.7-12.2,29.6
		l-0.4,0.4c-7.9,7.9-18.4,12.2-29.6,12.2c-11.2,0-21.7-4.3-29.6-12.2l-9.6-9.7c-12.4,7.2-26.6,12.7-39.6,16.4v13.7
		c0,11.2-4.4,21.7-12.3,29.6c-7.9,7.9-18.4,12.3-29.7,12.3V423.9z"/>
	<path fill="#FCFCFC" d="M361.9,175.7c-4.7,0-8.5,3.8-8.5,8.5c0,4.7,3.8,8.5,8.5,8.5l23.5,0c5.6,0,10.9,2.2,14.9,6.2
		c4,4,6.2,9.3,6.2,14.9v0.6c0,5.6-2.2,10.9-6.2,14.9c-4,4-9.3,6.2-14.9,6.2l-23.5,0c-4.1,0-7.6,2.9-8.4,6.9
		c-3.7,18.2-10.7,35.3-21,50.7c-2.3,3.4-1.8,7.9,1.1,10.8l16.6,16.6c8.2,8.2,8.2,21.6,0,29.8l-0.4,0.4c-8.2,8.2-21.6,8.2-29.8,0
		L303.4,334c-2.9-2.9-7.4-3.3-10.8-1.1c-15.4,10.3-32.5,17.3-50.7,21c-4,0.8-6.9,4.3-6.9,8.4v23.5c0,5.6-2.2,10.9-6.2,14.9
		c-4,4-9.3,6.2-14.9,6.2l-0.6,0c-5.6,0-10.9-2.2-14.9-6.2c-4-4-6.2-9.3-6.2-14.9l0-23.5c0-4.1-2.9-7.6-6.9-8.4
		c-18.2-3.7-35.3-10.7-50.7-21c-3.4-2.3-7.9-1.8-10.8,1.1l-16.6,16.6c-8.2,8.2-21.6,8.2-29.8,0l-0.4-0.4c-8.2-8.2-8.2-21.6,0-29.8
		l16.6-16.6c2.9-2.9,3.3-7.4,1.1-10.8c-10.3-15.4-17.3-32.5-21-50.7c-0.8-4-4.3-6.9-8.4-6.9l-23.5,0c-5.6,0-10.9-2.2-14.9-6.2
		s-6.2-9.3-6.2-14.9v-0.6c0-5.6,2.2-10.9,6.2-14.9c4-4,9.3-6.2,14.9-6.2l23.5,0c4.7,0,8.5-3.8,8.5-8.5c0-4.7-3.8-8.5-8.5-8.5
		l-23.5,0c-10.2,0-19.8,4-27,11.2c-7.2,7.2-11.2,16.8-11.2,27v0.6c0,10.2,4,19.8,11.2,27s16.8,11.2,27,11.2l16.6,0
		c3.8,15.6,9.9,30.4,18.2,44l-11.7,11.7c-14.9,14.9-14.9,39.1,0,53.9l0.4,0.4c14.9,14.9,39,14.9,53.9,0l11.7-11.7
		c13.7,8.3,28.5,14.4,44,18.2l0,16.6c0,10.2,4,19.8,11.2,27s16.8,11.2,27,11.2h0.6c10.2,0,19.8-4,27-11.2s11.2-16.8,11.2-27l0-16.6
		c15.6-3.8,30.4-9.9,44-18.2l11.7,11.7c14.9,14.9,39.1,14.9,53.9,0l0.4-0.4c14.9-14.9,14.9-39.1,0-53.9l-11.7-11.7
		c8.3-13.7,14.4-28.5,18.2-44l16.6,0c10.2,0,19.8-4,27-11.2c7.2-7.2,11.2-16.8,11.2-27v-0.6c0-10.2-4-19.8-11.2-27
		c-7.2-7.2-16.8-11.2-27-11.2L361.9,175.7z"/>
	<path fill="#F59C1B" d="M339.6,142.7c-3.3,0-6.4-1.3-8.7-3.6c-4.8-4.8-4.8-12.6,0-17.4l16.6-16.6c3.3-3.3,5.1-7.6,5.1-12.2
		c0-4.6-1.8-9-5.1-12.2l-0.4-0.4c-3.3-3.3-7.6-5.1-12.2-5.1c-4.6,0-9,1.8-12.2,5.1l-16.6,16.6c-2.3,2.3-5.4,3.6-8.7,3.6
		c-2.4,0-4.8-0.7-6.8-2.1c-15-10-31.6-16.9-49.4-20.4c-5.7-1.1-9.9-6.2-9.9-12l0-23.5c0-4.6-1.8-9.1-5.1-12.3
		C223,26.9,218.6,25,214,25h-0.6c-4.6,0-9,1.9-12.2,5.2c-3.3,3.3-5.1,7.7-5.1,12.3l0,23.5c0,5.8-4.1,10.9-9.9,12.1
		c-17.8,3.6-34.4,10.4-49.4,20.4c-2,1.3-4.4,2.1-6.8,2.1c-3.3,0-6.4-1.3-8.7-3.6l-16.6-16.6c-3.3-3.3-7.6-5.1-12.2-5.1
		c-4.6,0-9,1.8-12.2,5.1l-0.4,0.4c-6.7,6.7-6.7,17.7,0,24.5l16.6,16.6c2.3,2.3,3.6,5.4,3.6,8.7c0,3.3-1.3,6.4-3.6,8.7
		c-2.3,2.3-5.4,3.6-8.7,3.6c-3.3,0-6.4-1.3-8.7-3.6l-16.6-16.6c-7.9-7.9-12.2-18.4-12.2-29.6c0-11.2,4.3-21.7,12.2-29.6l0.4-0.4
		c7.9-7.9,18.4-12.2,29.6-12.2s21.7,4.3,29.6,12.2l9.4,9.7C144,65.4,158,59.9,171,56.2V42.5c0-11.2,4.6-22,12.5-29.9
		C191.4,4.7,202.2,0,213.4,0h0.6c11.2,0,21.7,4.7,29.7,12.6c7.9,7.9,12.3,18.7,12.3,29.9v13.7c13,3.7,27.2,9.2,39.6,16.4l9.7-9.7
		c7.9-7.9,18.4-12.2,29.6-12.2c11.2,0,21.7,4.3,29.6,12.2l0.4,0.4c7.9,7.9,12.2,18.4,12.2,29.6c0,11.2-4.4,21.7-12.2,29.6
		l-16.6,16.6C346,141.5,342.9,142.7,339.6,142.7z"/>
	<path fill="#F59C1B" d="M307.9,65.6l-11.7,11.7c-13.7-8.3-28.5-14.4-44-18.2V42.5c0-21-17.1-38.1-38.1-38.1l-0.6,0
		c-10.2,0-19.8,4-27,11.2c-7.2,7.2-11.2,16.8-11.2,27v16.6c-15.6,3.8-30.4,9.9-44,18.2l-11.7-11.7c-14.9-14.9-39.1-14.9-53.9,0
		L65.2,66c-14.9,14.9-14.9,39.1,0,53.9l16.6,16.6c3.3,3.3,8.7,3.3,12.1,0c3.3-3.3,3.3-8.7,0-12.1l-16.6-16.6
		c-8.2-8.2-8.2-21.6,0-29.8l0.4-0.4c8.2-8.2,21.6-8.2,29.8,0L124,94.2c2.9,2.9,7.4,3.3,10.8,1.1c15.4-10.3,32.5-17.3,50.7-21
		c4-0.8,6.9-4.3,6.9-8.4l0-23.5c0-5.6,2.2-10.9,6.2-14.9c4-4,9.3-6.2,14.9-6.2l0.6,0c5.6,0,10.9,2.2,14.9,6.2c4,4,6.2,9.3,6.2,14.9
		l0,23.5c0,4.1,2.9,7.6,6.9,8.4c18.2,3.7,35.3,10.7,50.7,21c3.4,2.3,7.9,1.8,10.8-1.1L320,77.7c8.2-8.2,21.6-8.2,29.8,0l0.4,0.4
		c8.2,8.2,8.2,21.6,0,29.8l-16.6,16.6c-3.3,3.3-3.3,8.7,0,12.1c3.3,3.3,8.7,3.3,12.1,0l16.6-16.6c14.9-14.9,14.9-39.1,0-53.9
		l-0.4-0.4C347,50.7,322.8,50.7,307.9,65.6z"/>
	<path fill="#FCFCFC" d="M218,266.9c-6.3,0-11.5-4.7-12.2-11c-0.7-6.7,4.2-12.8,10.9-13.5c6.5-0.7,12.5-3.5,17.1-8.2
		c11.1-11.1,11.1-29.1,0-40.2c-5.4-5.4-12.5-8.3-20.1-8.3c-7.6,0-14.7,3-20.1,8.3c-11.1,11.1-11.1,29.1,0,40.2
		c2.3,2.3,3.6,5.4,3.6,8.7c0,3.3-1.3,6.4-3.6,8.7c-2.3,2.3-5.4,3.6-8.7,3.6c-3.3,0-6.4-1.3-8.7-3.6c-10-10-15.5-23.3-15.5-37.5
		s5.5-27.5,15.5-37.5c10-10,23.3-15.5,37.5-15.5c14.2,0,27.5,5.5,37.5,15.5c20.7,20.7,20.7,54.3,0,74.9c-8.6,8.6-19.9,14-31.9,15.2
		C218.8,266.9,218.4,266.9,218,266.9C218,266.9,218,266.9,218,266.9z"/>
	<path fill="#FCFCFC" d="M236.5,236.9c-5.3,5.3-12,8.5-19.4,9.2c-4.7,0.5-8.1,4.7-7.6,9.4c0.5,4.7,4.7,8.1,9.4,7.6
		c11.2-1.2,21.7-6.2,29.7-14.2c19.2-19.2,19.2-50.4,0-69.6c-19.2-19.2-50.4-19.2-69.6,0s-19.2,50.4,0,69.6c3.3,3.3,8.7,3.3,12.1,0
		c3.3-3.3,3.3-8.7,0-12.1c-12.5-12.5-12.5-32.9,0-45.5s32.9-12.5,45.5,0S249,224.3,236.5,236.9z"/>
</g>
<g>
	<path fill="#FCFCFC" d="M539.5,129.6c11.9-5,24.3-7.5,37.4-7.5c13,0,25.5,2.5,37.4,7.5c11.9,5,22.1,11.8,30.7,20.3
		c8.6,8.5,15.5,18.6,20.5,30.3c5.1,11.7,7.6,24,7.6,36.8c0,12.8-2.5,25.1-7.6,36.9c-5.1,11.8-11.9,21.9-20.5,30.4
		c-8.6,8.5-18.8,15.2-30.7,20.2c-11.9,5-24.3,7.5-37.4,7.5c-13,0-25.5-2.5-37.4-7.5c-11.9-5-22.1-11.7-30.7-20.2
		c-8.6-8.5-15.5-18.6-20.5-30.4c-5.1-11.8-7.6-24.1-7.6-36.9c0-12.8,2.5-25.1,7.6-36.8c5.1-11.7,11.9-21.8,20.5-30.3
		C517.4,141.3,527.7,134.6,539.5,129.6z M545.7,247.6c8.6,8.5,19,12.7,31.2,12.7s22.6-4.2,31.2-12.7c8.6-8.5,12.9-18.7,12.9-30.7
		c0-12-4.3-22.2-12.9-30.7c-8.6-8.5-19-12.7-31.2-12.7s-22.6,4.2-31.2,12.7c-8.6,8.5-12.9,18.7-12.9,30.7
		C532.8,228.9,537.1,239.1,545.7,247.6z"/>
	<path fill="#FCFCFC" d="M755.7,231.3l38.9-104.2c0.5-1.6,1.6-2.4,3.3-2.4h44.5c1,0,1.8,0.3,2.5,1c0.7,0.7,1.1,1.5,1.1,2.6v1.1
		c0,0.4-0.1,0.8-0.2,1.3l-64.3,173.4c-0.6,1.6-1.7,2.4-3.3,2.4h-44.9c-1.6,0-2.7-0.8-3.3-2.4l-64.3-173.6c-0.1-0.4-0.2-0.7-0.2-1.1
		v-1.3c0-1,0.3-1.8,1-2.5c0.7-0.7,1.5-1,2.6-1h44.5c1.7,0,2.8,0.8,3.3,2.4L755.7,231.3z"/>
	<path fill="#FCFCFC" d="M864,306.5c-1.1,0-2-0.3-2.6-1c-0.7-0.7-1-1.5-1-2.6V128.4c0-1.1,0.3-2,1-2.6c0.7-0.7,1.5-1,2.6-1h106.7
		c1,0,1.8,0.3,2.5,1c0.7,0.7,1.1,1.5,1.1,2.6v36.2c0,1-0.4,1.8-1.1,2.5c-0.7,0.7-1.6,1.1-2.5,1.1h-59.3V194h51.3c1,0,1.8,0.3,2.5,1
		c0.7,0.7,1,1.5,1,2.5v36.4c0,1-0.3,1.8-1,2.5c-0.7,0.7-1.5,1-2.5,1h-51.3v26h59.3c1,0,1.8,0.3,2.5,1c0.7,0.7,1.1,1.5,1.1,2.5v36.2
		c0,1.1-0.4,2-1.1,2.6c-0.7,0.7-1.6,1-2.5,1H864z"/>
	<path fill="#FCFCFC" d="M1111,244.2c14.2,16.1,21.6,36.6,22.4,61.4c0,1-0.3,1.8-1,2.5c-0.7,0.7-1.5,1.1-2.6,1.1h-47.1
		c-1,0-1.8-0.3-2.5-1c-0.7-0.7-1-1.5-1-2.5c-0.6-14.7-4.3-25.9-11.2-33.7c-6.8-7.8-16.3-12.1-28.3-13v46.5c0,1-0.4,1.8-1.1,2.5
		c-0.7,0.7-1.6,1.1-2.5,1.1h-43.8c-1.1,0-2-0.4-2.6-1.1c-0.7-0.7-1-1.6-1-2.5V128.4c0-1.1,0.3-2,1-2.6c0.7-0.7,1.5-1,2.6-1h86.2
		c7.6,0,14.7,1.3,21.1,4c6.4,2.7,12.1,6.6,17.1,11.9c5,5.3,8.8,12.1,11.6,20.4c2.8,8.4,4.2,17.9,4.2,28.7
		C1132.5,214.5,1125.3,232.7,1111,244.2z M1039.8,172v38.7c0,1.1,0.5,1.6,1.6,1.6h20.9c5.3,0,9.8-1.9,13.4-5.7
		c3.6-3.8,5.4-8.9,5.4-15.3c0-6.4-1.8-11.5-5.4-15.3c-3.6-3.8-8-5.7-13.4-5.7h-20.9C1040.3,170.4,1039.8,170.9,1039.8,172z"/>
	<path fill="#FCFCFC" d="M1277.7,125.7c0.6-0.6,1.4-0.9,2.4-0.9h46.2c1,0,1.8,0.3,2.5,1c0.7,0.7,1,1.5,1,2.6v174.5
		c0,1.1-0.3,2-1,2.6c-0.7,0.7-1.5,1-2.5,1h-44c-1,0-1.8-0.3-2.5-1c-0.7-0.7-1-1.5-1-2.6v-88.2l-13.6,56.9c-0.4,1.8-1.5,2.7-3.5,2.7
		h-45.8c-1.9,0-3.1-0.9-3.5-2.7l-13.5-56.9v88.2c0,1.1-0.4,2-1.1,2.6c-0.7,0.7-1.6,1-2.5,1h-43.8c-1.1,0-2-0.3-2.6-1
		c-0.7-0.7-1-1.5-1-2.6V128.4c0-1.1,0.3-2,1-2.6c0.7-0.7,1.5-1,2.6-1h46c1,0,1.8,0.3,2.4,0.9c5,5,10.7,13.9,17.2,26.8
		c6.5,12.9,11.7,24.6,15.7,35.2l6,15.6c0.6-1.6,1.5-3.8,2.5-6.6c1.1-2.8,3.2-8.1,6.4-15.6c3.1-7.6,6.2-14.6,9.2-21
		c3-6.4,6.4-13,10.3-19.6C1271,133.7,1274.5,128.8,1277.7,125.7z"/>
	<path fill="#FCFCFC" d="M1403.1,129.6c11.9-5,24.3-7.5,37.4-7.5c13,0,25.5,2.5,37.4,7.5c11.9,5,22.1,11.8,30.7,20.3
		c8.6,8.5,15.5,18.6,20.5,30.3c5.1,11.7,7.6,24,7.6,36.8c0,12.8-2.5,25.1-7.6,36.9c-5.1,11.8-11.9,21.9-20.5,30.4
		c-8.6,8.5-18.8,15.2-30.7,20.2c-11.9,5-24.3,7.5-37.4,7.5c-13,0-25.5-2.5-37.4-7.5c-11.9-5-22.1-11.7-30.7-20.2
		c-8.6-8.5-15.5-18.6-20.5-30.4c-5.1-11.8-7.6-24.1-7.6-36.9c0-12.8,2.5-25.1,7.6-36.8c5.1-11.7,11.9-21.8,20.5-30.3
		C1381,141.3,1391.2,134.6,1403.1,129.6z M1409.3,247.6c8.6,8.5,19,12.7,31.2,12.7s22.6-4.2,31.2-12.7c8.6-8.5,12.9-18.7,12.9-30.7
		c0-12-4.3-22.2-12.9-30.7c-8.6-8.5-19-12.7-31.2-12.7s-22.6,4.2-31.2,12.7c-8.6,8.5-12.9,18.7-12.9,30.7
		C1396.4,228.9,1400.7,239.1,1409.3,247.6z"/>
	<path fill="#FCFCFC" d="M1623.8,124.7c11.3,0,21.6,1.8,31,5.4c9.4,3.6,17.8,8.9,25.1,16c7.3,7.1,13.1,16.6,17.2,28.4
		c4.1,11.9,6.2,25.6,6.2,41.1c0,15.5-2.1,29.2-6.2,41.1c-4.1,11.9-9.8,21.4-17.2,28.4c-7.3,7.1-15.7,12.4-25.1,16
		c-9.4,3.6-19.7,5.4-31,5.4h-68.9c-1.1,0-2-0.3-2.6-1c-0.7-0.7-1-1.5-1-2.6V128.4c0-1.1,0.3-2,1-2.6c0.7-0.7,1.5-1,2.6-1H1623.8z
		 M1612.3,263.4c11.6,0,21.1-4,28.4-12c7.3-8,10.9-20,10.9-36c0-16-3.6-28-10.9-36s-16.7-12-28.4-12h-8.4c-1.1,0-1.6,0.6-1.6,1.8
		v92.5c0,1.1,0.5,1.6,1.6,1.6H1612.3z"/>
	<path fill="#FCFCFC" d="M1826.6,130.9l-3.5,35.4c-0.1,1-0.6,1.8-1.5,2.5c-0.8,0.7-1.8,0.9-2.7,0.6c-12.1-2.7-23.2-4.1-33.3-4.2
		c-4.1-0.1-7.7,0.4-10.6,1.5c-3,1.2-5.1,2.6-6.4,4.5c-1.3,1.8-2.2,3.4-2.6,4.7c-0.5,1.3-0.7,2.5-0.7,3.6c0,1.2,0.2,2.5,0.7,4
		c0.5,1.5,1.5,3.3,2.9,5.5c1.5,2.2,3.9,4.3,7.4,6.4c3.5,2.1,7.7,3.7,12.6,4.9c5.6,1.3,11,3.6,16.3,6.7c5.3,3.2,10.1,7.1,14.6,11.9
		c4.5,4.8,8.1,10.7,10.7,17.7c2.7,7,4,14.7,4,22.9c0,17.7-5.5,30.8-16.4,39.4c-10.9,8.5-28.5,12.8-52.9,12.8
		c-13.7,0-26.5-0.7-38.5-2.2c-0.8-0.1-1.6-0.5-2.2-1.3c-0.6-0.7-0.9-1.6-0.9-2.5l3.5-35.4c0.1-1.1,0.6-1.9,1.5-2.5
		c0.8-0.6,1.8-0.8,2.9-0.5c11.6,2.5,22.3,3.9,32,4c4.2,0.1,7.8-0.4,10.8-1.5c3-1.1,5.1-2.6,6.3-4.4c1.2-1.8,2.1-3.3,2.5-4.7
		c0.5-1.4,0.7-2.6,0.7-3.7c0-1.2-0.2-2.5-0.7-4c-0.5-1.5-1.4-3.3-2.8-5.5c-1.4-2.2-3.8-4.3-7.3-6.4c-3.5-2.1-7.7-3.7-12.6-4.9
		c-5.7-1.3-11.2-3.6-16.4-6.7c-5.2-3.1-10.1-7.1-14.5-11.8c-4.5-4.7-8.1-10.6-10.8-17.7c-2.7-7.1-4.1-14.8-4.1-23
		c0-17,6.1-29.9,18.5-38.8c12.3-8.9,29.2-13.4,50.8-13.4c11.6,0,24.8,0.8,39.6,2.4c0.8,0.1,1.6,0.5,2.2,1.3
		C1826.3,129.1,1826.6,130,1826.6,130.9z"/>
</g>
<path fill="#FCFCFC" d="M214,159.5c-30.1,0-54.5,24.4-54.5,54.5c0,30.1,24.4,54.5,54.5,54.5s54.5-24.4,54.5-54.5
	C268.5,183.9,244.1,159.5,214,159.5z M214,242c-15.4,0-28-12.5-28-28c0-15.4,12.5-28,28-28s28,12.5,28,28
	C242,229.5,229.4,242,214,242z"/>
</svg>
